<?xml version="1.0" standalone="no"?>
<!DOCTYPE svg PUBLIC "-//W3C//DTD SVG 20010904//EN"
 "http://www.w3.org/TR/2001/REC-SVG-20010904/DTD/svg10.dtd">
<svg version="1.0" xmlns="http://www.w3.org/2000/svg"
 width="700.000000pt" height="700.000000pt" viewBox="0 0 700.000000 700.000000"
 preserveAspectRatio="xMidYMid meet">
<metadata>
Created by potrace 1.14, written by Peter Selinger 2001-2017
</metadata>
<g transform="translate(0.000000,700.000000) scale(0.100000,-0.100000)"
fill="#000000" stroke="none">
<path d="M825 5009 c-47 -6 -64 -12 -82 -33 -21 -24 -23 -38 -23 -124 -3
-1637 1 -2794 11 -2815 24 -54 -11 -52 1001 -52 l940 0 28 31 27 31 1 304 c0
329 -2 344 -55 368 -16 8 -197 11 -562 11 l-539 0 1 1112 0 1112 -32 28 c-17
15 -43 28 -59 29 -193 4 -611 3 -657 -2z"/>
<path d="M2502 5008 c-46 -12 -67 -43 -66 -97 1 -25 45 -248 99 -496 53 -247
99 -459 101 -470 2 -11 6 -29 8 -40 2 -11 36 -171 76 -355 39 -184 73 -342 75
-351 2 -9 12 -59 24 -110 11 -52 22 -105 25 -119 2 -14 9 -45 15 -70 5 -25 12
-57 15 -72 8 -40 13 -61 36 -168 26 -116 23 -104 59 -275 83 -396 72 -358 114
-384 30 -17 55 -18 437 -17 223 2 412 6 421 10 25 11 46 57 64 141 9 44 18 89
21 100 2 11 7 36 11 55 4 19 8 37 8 40 1 3 4 19 8 35 9 38 17 73 23 105 12 63
3 24 118 560 52 245 106 504 121 575 27 129 44 183 45 139 0 -11 18 -101 39
-200 22 -98 42 -190 45 -204 2 -14 21 -101 41 -195 21 -93 39 -179 41 -190 2
-11 10 -49 18 -85 8 -36 28 -128 44 -205 81 -373 133 -612 138 -627 2 -9 17
-24 32 -35 25 -17 56 -18 427 -19 329 -1 406 1 432 13 31 15 49 44 59 98 3 16
20 99 39 185 19 86 36 168 39 183 14 65 18 85 42 195 14 64 29 137 34 162 5
25 21 99 35 165 15 66 29 131 31 145 3 14 20 97 39 185 19 88 36 171 39 185 2
14 19 90 36 170 18 80 34 159 37 175 2 17 11 55 18 85 8 30 17 71 20 90 3 19
8 43 11 52 3 9 7 27 9 40 3 13 7 34 10 48 3 14 7 36 10 49 2 13 22 108 44 210
23 102 45 209 50 236 6 28 13 59 15 70 3 11 13 59 22 107 20 99 15 129 -27
160 -23 18 -46 19 -305 19 -444 1 -412 2 -439 -25 -22 -22 -37 -61 -49 -126
-2 -14 -7 -36 -10 -50 -3 -14 -8 -36 -10 -50 -2 -14 -9 -43 -14 -65 -6 -22
-13 -53 -15 -70 -3 -16 -10 -52 -17 -80 -6 -27 -14 -61 -16 -75 -3 -14 -37
-171 -75 -350 -39 -179 -72 -336 -75 -350 -2 -14 -8 -43 -14 -65 -11 -46 -50
-228 -56 -265 -23 -134 -21 -138 -79 130 -3 14 -8 41 -11 60 -3 19 -8 38 -10
41 -2 4 -6 24 -10 45 -3 22 -12 66 -19 99 -8 33 -16 71 -19 85 -3 14 -9 45
-14 70 -50 233 -110 513 -137 645 -72 340 -74 349 -101 373 -14 12 -39 22 -57
22 -228 4 -659 1 -675 -5 -32 -10 -58 -54 -72 -120 -6 -33 -47 -226 -90 -430
-44 -203 -81 -381 -84 -395 -3 -14 -7 -36 -10 -50 -3 -14 -8 -36 -11 -50 -3
-14 -7 -34 -9 -45 -2 -11 -9 -40 -15 -65 -10 -40 -77 -353 -87 -405 -23 -120
-26 -128 -34 -85 -4 19 -19 89 -33 155 -14 66 -28 131 -31 145 -2 14 -12 59
-21 100 -9 41 -19 86 -21 100 -3 14 -14 63 -24 110 -20 88 -96 444 -111 515
-47 232 -101 469 -111 484 -25 41 -44 43 -382 45 -179 0 -339 -2 -354 -6z"/>
</g>
</svg>
