<svg id="visual" viewBox="0 0 960 540" width="960" height="540" xmlns="http://www.w3.org/2000/svg" xmlns:xlink="http://www.w3.org/1999/xlink" version="1.1"><rect x="0" y="0" width="960" height="540" fill="#001220"></rect><path d="M0 129L32 128.7C64 128.3 128 127.7 192 141.5C256 155.3 320 183.7 384 185C448 186.3 512 160.7 576 148.3C640 136 704 137 768 138.7C832 140.3 896 142.7 928 143.8L960 145L960 541L928 541C896 541 832 541 768 541C704 541 640 541 576 541C512 541 448 541 384 541C320 541 256 541 192 541C128 541 64 541 32 541L0 541Z" fill="#535d9b"></path><path d="M0 286L32 276.7C64 267.3 128 248.7 192 243.5C256 238.3 320 246.7 384 250.8C448 255 512 255 576 246.8C640 238.7 704 222.3 768 226.3C832 230.3 896 254.7 928 266.8L960 279L960 541L928 541C896 541 832 541 768 541C704 541 640 541 576 541C512 541 448 541 384 541C320 541 256 541 192 541C128 541 64 541 32 541L0 541Z" fill="#765ba1"></path><path d="M0 291L32 296.7C64 302.3 128 313.7 192 320.3C256 327 320 329 384 326.3C448 323.7 512 316.3 576 311.5C640 306.7 704 304.3 768 308.3C832 312.3 896 322.7 928 327.8L960 333L960 541L928 541C896 541 832 541 768 541C704 541 640 541 576 541C512 541 448 541 384 541C320 541 256 541 192 541C128 541 64 541 32 541L0 541Z" fill="#98579f"></path><path d="M0 404L32 396C64 388 128 372 192 370.5C256 369 320 382 384 383C448 384 512 373 576 370.2C640 367.3 704 372.7 768 374.7C832 376.7 896 375.3 928 374.7L960 374L960 541L928 541C896 541 832 541 768 541C704 541 640 541 576 541C512 541 448 541 384 541C320 541 256 541 192 541C128 541 64 541 32 541L0 541Z" fill="#b85195"></path><path d="M0 471L32 464.5C64 458 128 445 192 445C256 445 320 458 384 457.7C448 457.3 512 443.7 576 438.3C640 433 704 436 768 435C832 434 896 429 928 426.5L960 424L960 541L928 541C896 541 832 541 768 541C704 541 640 541 576 541C512 541 448 541 384 541C320 541 256 541 192 541C128 541 64 541 32 541L0 541Z" fill="#d24c84"></path></svg>